<?xml version="1.0" encoding="UTF-8"?>
<svg width="118px" height="121px" viewBox="0 0 118 121" version="1.1" xmlns="http://www.w3.org/2000/svg" xmlns:xlink="http://www.w3.org/1999/xlink">
    <!-- Generator: Sketch 48.2 (47327) - http://www.bohemiancoding.com/sketch -->
    <title>HP - Logo</title>
    <desc>Created with Sketch.</desc>
    <defs>
        <linearGradient x1="-70.0195312%" y1="100%" x2="173.730469%" y2="-13.5426241%" id="linearGradient-1">
            <stop stop-color="#FF557C" offset="0%"></stop>
            <stop stop-color="#EC2C7E" offset="100%"></stop>
        </linearGradient>
    </defs>
    <g id="Trial-Email" stroke="none" stroke-width="1" fill="none" fill-rule="evenodd" transform="translate(-281.000000, -129.000000)">
        <g id="HP---Logo" transform="translate(279.000000, 129.000000)">
            <g id="Icon-HourPrice" transform="translate(20.000000, 0.000000)">
                <g id="Group-8">
                    <g id="Group-7">
                        <polygon id="Rectangle-6-Copy" fill="#FFCE48" points="70.2263695 63.834327 70.2263695 -1.75242442e-14 57.977208 -2.84217094e-14 57.977208 63.834327"></polygon>
                        <polygon id="Rectangle-6-Copy-2" fill="#FF5D5D" points="50.7979935 83.5471576 50.7979935 25.1967869 38.548832 25.1967869 38.548832 83.5471576"></polygon>
                        <polygon id="Rectangle-6-Copy-3" fill="url(#linearGradient-1)" points="32.6195319 63.834327 32.6195319 6.77408841e-14 20.3703704 5.68434189e-14 20.3703704 63.834327"></polygon>
                        <path d="M73.4949693,82.2436304 C66.4274958,88.3413486 57.135077,92.1037704 46.9265041,92.1037704 C24.6770505,92.1037704 6.48485023,74.1998321 6.48485023,52.0145172 C6.48485023,30.8671118 23.1065009,13.4821282 44.0471631,12.0550027 L44.0471631,53.1821653 L73.4949693,82.2436304 Z" id="Shape-Copy" fill="#BDC7DE" transform="translate(39.989910, 52.079387) scale(-1, 1) rotate(-90.000000) translate(-39.989910, -52.079387) "></path>
                    </g>
                </g>
                <path d="M35.2584684,50.6371456 C34.7682299,49.854134 34.4848053,48.9281913 34.4848053,47.9359941 C34.4848053,45.1226487 36.763508,42.8419817 39.5744302,42.8419817 C42.3853524,42.8419817 44.6640551,45.1226487 44.6640551,47.9359941 C44.6640551,50.7493396 42.3853524,53.0300066 39.5744302,53.0300066 C39.094575,53.0300066 38.6302298,52.9635429 38.1900833,52.8393115 L21.570667,70.0492209 L18.9532913,67.5216506 L35.2584684,50.6371456 Z" id="Combined-Shape" fill="#FFFFFF"></path>
            </g>
            <path d="M16.9531694,120 L14.4344371,120 L14.4344371,111.217063 L4.85542436,111.217063 L4.85542436,120 L2.34974254,120 L2.34974254,100.99858 L4.85542436,100.99858 L4.85542436,109.168146 L14.4344371,109.168146 L14.4344371,100.99858 L16.9531694,100.99858 L16.9531694,120 Z M20.3854315,112.809215 C20.3854315,111.425863 20.6573126,110.181735 21.2010831,109.076793 C21.7448536,107.971852 22.5017707,107.119232 23.4718572,106.51891 C24.4419438,105.918587 25.5490439,105.61843 26.7931907,105.61843 C28.7159631,105.61843 30.2711233,106.283995 31.458718,107.615146 C32.6463128,108.946296 33.2401012,110.716786 33.2401012,112.926669 L33.2401012,113.096325 C33.2401012,114.470976 32.9769202,115.704229 32.4505504,116.79612 C31.9241806,117.888011 31.1716136,118.738456 30.1928267,119.347479 C29.2140399,119.956502 28.0895394,120.261009 26.8192915,120.261009 C24.9052195,120.261009 23.3544093,119.595443 22.1668146,118.264293 C20.9792199,116.933143 20.3854315,115.171353 20.3854315,112.978871 L20.3854315,112.809215 Z M22.8128107,113.096325 C22.8128107,114.662384 23.176044,115.919562 23.9025213,116.867898 C24.6289987,117.816233 25.6012457,118.290394 26.8192915,118.290394 C28.0460377,118.290394 29.0204598,117.809708 29.742587,116.848322 C30.4647142,115.886936 30.8257724,114.54058 30.8257724,112.809215 C30.8257724,111.260557 30.458189,110.005553 29.7230114,109.044167 C28.9878337,108.082781 28.0112366,107.602095 26.7931907,107.602095 C25.6012458,107.602095 24.639874,108.076256 23.9090465,109.024592 C23.178219,109.972927 22.8128107,111.330158 22.8128107,113.096325 Z M44.9854847,118.603604 C44.0458494,119.708546 42.6668681,120.261009 40.8484996,120.261009 C39.343343,120.261009 38.197092,119.823824 37.4097124,118.949441 C36.6223327,118.075058 36.2242987,116.780903 36.2155984,115.066939 L36.2155984,105.879439 L38.6299272,105.879439 L38.6299272,115.001687 C38.6299272,117.141967 39.4999469,118.212092 41.2400124,118.212092 C43.0844819,118.212092 44.3112097,117.524776 44.9202326,116.150124 L44.9202326,105.879439 L47.3345614,105.879439 L47.3345614,120 L45.0376864,120 L44.9854847,118.603604 Z M57.827104,108.04581 C57.4616903,107.984907 57.0658313,107.954457 56.6395153,107.954457 C55.0560556,107.954457 53.9815813,108.628722 53.41606,109.977273 L53.41606,120 L51.0017312,120 L51.0017312,105.879439 L53.3508079,105.879439 L53.3899592,107.510742 C54.181689,106.249195 55.3040144,105.61843 56.7569691,105.61843 C57.2267868,105.61843 57.5834949,105.679332 57.827104,105.801136 L57.827104,108.04581 Z M63.4518377,112.939719 L63.4518377,120 L60.1500799,120 L60.1500799,100.99858 L67.4191673,100.99858 C69.5420472,100.99858 71.2277104,101.551042 72.4762074,102.655984 C73.7247044,103.760925 74.3489435,105.222558 74.3489435,107.040927 C74.3489435,108.902797 73.7377547,110.35138 72.5153587,111.386719 C71.2929626,112.422058 69.5811989,112.939719 67.380016,112.939719 L63.4518377,112.939719 Z M63.4518377,110.290483 L67.4191673,110.290483 C68.5937115,110.290483 69.4898318,110.014252 70.107555,109.461781 C70.7252783,108.90931 71.0341353,108.111067 71.0341353,107.067028 C71.0341353,106.040389 70.7209282,105.220395 70.0945046,104.607022 C69.468081,103.993649 68.6067615,103.678267 67.5105202,103.660866 L63.4518377,103.660866 L63.4518377,110.290483 Z M84.3194691,108.776634 C83.9018534,108.707031 83.4711936,108.67223 83.0274769,108.67223 C81.5745222,108.67223 80.59575,109.229043 80.091131,110.342685 L80.091131,120 L76.9198775,120 L76.9198775,105.879439 L79.9475763,105.879439 L80.0258789,107.45854 C80.7915077,106.231794 81.8529318,105.61843 83.2101829,105.61843 C83.6625999,105.61843 84.0367084,105.679332 84.3325195,105.801136 L84.3194691,108.776634 Z M89.6962447,120 L86.5249911,120 L86.5249911,105.879439 L89.6962447,105.879439 L89.6962447,120 Z M86.3292347,102.212269 C86.3292347,101.725051 86.4836632,101.320492 86.7925249,100.99858 C87.1013865,100.676667 87.5429215,100.515714 88.1171431,100.515714 C88.6913647,100.515714 89.1350748,100.676667 89.4482866,100.99858 C89.7614984,101.320492 89.9181019,101.725051 89.9181019,102.212269 C89.9181019,102.690787 89.7614984,103.088821 89.4482866,103.406383 C89.1350748,103.723945 88.6913647,103.882724 88.1171431,103.882724 C87.5429215,103.882724 87.1013865,103.723945 86.7925249,103.406383 C86.4836632,103.088821 86.3292347,102.690787 86.3292347,102.212269 Z M98.9489968,117.729226 C99.7407266,117.729226 100.397591,117.498671 100.919611,117.037553 C101.441631,116.576436 101.720037,116.006573 101.754838,115.327947 L104.743386,115.327947 C104.708585,116.206681 104.434528,117.026674 103.921209,117.787953 C103.40789,118.549231 102.711874,119.15172 101.833141,119.595437 C100.954408,120.039153 100.006086,120.261009 98.9881481,120.261009 C97.0131737,120.261009 95.4471382,119.621544 94.2899947,118.342596 C93.1328511,117.063648 92.554288,115.297508 92.554288,113.044123 L92.554288,112.717862 C92.554288,110.568881 93.128501,108.848417 94.2769442,107.556419 C95.4253875,106.26442 96.991423,105.61843 98.9750977,105.61843 C100.654261,105.61843 102.022367,106.107816 103.079457,107.086603 C104.136546,108.06539 104.691184,109.350844 104.743386,110.943004 L101.754838,110.943004 C101.720037,110.133874 101.443806,109.468309 100.926136,108.946289 C100.408467,108.424269 99.7494269,108.163263 98.9489968,108.163263 C97.9223581,108.163263 97.1306402,108.535197 96.5738192,109.279075 C96.0169983,110.022953 95.7342419,111.151804 95.7255415,112.665661 L95.7255415,113.174627 C95.7255415,114.705885 96.0017728,115.847786 96.5542436,116.600364 C97.1067144,117.352942 97.9049575,117.729226 98.9489968,117.729226 Z M113.356667,120.261009 C111.346892,120.261009 109.71778,119.628069 108.469283,118.362172 C107.220786,117.096274 106.596547,115.410611 106.596547,113.305131 L106.596547,112.913619 C106.596547,111.504166 106.868428,110.244812 107.412198,109.13552 C107.955969,108.026228 108.719411,107.162734 109.702548,106.545011 C110.685685,105.927287 111.78191,105.61843 112.991255,105.61843 C114.914028,105.61843 116.399586,106.231794 117.447976,107.45854 C118.496365,108.685287 119.020552,110.420976 119.020552,112.665661 L119.020552,113.944602 L109.793901,113.944602 C109.889605,115.110446 110.278938,116.032667 110.961914,116.711293 C111.64489,117.389918 112.504034,117.729226 113.539373,117.729226 C114.992328,117.729226 116.175555,117.141963 117.089089,115.967418 L118.798695,117.598722 C118.233174,118.442653 117.478432,119.097343 116.534446,119.562811 C115.59046,120.028278 114.531211,120.261009 113.356667,120.261009 Z M112.978205,108.163263 C112.108172,108.163263 111.405631,108.46777 110.870561,109.076793 C110.335491,109.685816 109.994008,110.534085 109.846103,111.621626 L115.88845,111.621626 L115.88845,111.386719 C115.818847,110.325279 115.536091,109.522686 115.040172,108.978915 C114.544254,108.435145 113.856938,108.163263 112.978205,108.163263 Z" id="HourPrice-Copy-5" fill="#172F70"></path>
        </g>
    </g>
</svg>