<?xml version="1.0" encoding="UTF-8"?>
<svg width="26px" height="26px" viewBox="0 0 26 26" version="1.1" xmlns="http://www.w3.org/2000/svg" xmlns:xlink="http://www.w3.org/1999/xlink">
    <!-- Generator: sketchtool 53.1 (72631) - https://sketchapp.com -->
    <title>282B2DEB-080D-49F0-9834-84D007F0D0F5</title>
    <desc>Created with sketchtool.</desc>
    <g id="Dashboard" stroke="none" stroke-width="1" fill="none" fill-rule="evenodd">
        <g id="Dashboard-Company" transform="translate(-1165.000000, -309.000000)" fill="#232E37">
            <g id="Side-Nav" transform="translate(925.000000, 175.000000)">
                <path d="M259.268951,146.915744 L253.547401,146.705889 C253.37889,146.368343 253.04239,146.157965 252.705889,146.115575 C252.621634,146.115575 252.495511,146.157965 252.369389,146.199831 L248.540719,141.993317 C248.371684,141.825329 248.077573,141.783463 247.825329,141.993317 C247.615474,142.161829 247.615474,142.497806 247.825329,142.708184 L251.695866,146.958134 C251.695866,147 251.612133,147.041866 251.612133,147.084256 C251.612133,147.420233 251.807263,147.744894 251.9905,147.884425 C252.173737,148.023956 252.285657,148.052413 252.285657,148.052413 C252.285657,148.052413 252.468643,148.136146 252.621634,148.136146 C252.958134,148.178535 253.295157,147.968157 253.505012,147.714343 L259.268951,147.968157 C259.522241,147.968157 259.773962,147.798599 259.816352,147.504489 C259.816352,147.209855 259.564108,146.958134 259.268951,146.958134 L259.268951,146.915744 Z M261.330864,146.495511 C261.330864,146.705889 261.499899,146.958134 261.75162,146.958134 L264.108168,146.915744 C264.360412,146.915744 264.570267,146.705889 264.570267,146.495511 C264.570267,146.241697 264.360412,146.074232 264.108168,146.074232 L261.75162,146.074232 C261.499899,146.074232 261.288475,146.241697 261.288475,146.495511 L261.330864,146.495511 Z M253.04239,138.753915 C253.295157,138.753915 253.505012,138.585403 253.505012,138.332112 L253.505012,135.934745 C253.505012,135.682501 253.295157,135.472123 253.04239,135.472123 C252.790145,135.472123 252.621634,135.682501 252.621634,135.934745 L252.621634,138.332112 C252.621634,138.543537 252.790145,138.753915 253.04239,138.753915 Z M253.04239,155.329818 C252.790145,155.329818 252.621634,155.540196 252.621634,155.75162 L252.621634,158.107121 C252.621634,158.359366 252.790145,158.56922 253.04239,158.56922 C253.295157,158.56922 253.505012,158.359366 253.505012,158.107121 L253.505012,155.75162 C253.505012,155.540196 253.295157,155.329818 253.04239,155.329818 Z M244.753915,146.495511 C244.753915,146.241697 244.585926,146.074232 244.333682,146.074232 L241.892879,146.074232 C241.640634,146.074232 241.472123,146.241697 241.472123,146.495511 C241.472123,146.705889 241.640634,146.958134 241.892879,146.958134 L244.333682,146.915744 C244.585926,146.915744 244.753915,146.705889 244.753915,146.495511 Z M253,134 C245.848195,134 240,139.847148 240,147 C240,154.195242 245.848195,160 253,160 C260.237631,160 266.001047,154.195242 266.001047,147 C266.001047,139.847148 260.237631,134 253,134 Z" id="Icon/Plan"></path>
            </g>
        </g>
    </g>
</svg>